<?xml version="1.0" encoding="utf-8"?>
<!-- Generator: Adobe Illustrator 15.1.0, SVG Export Plug-In . SVG Version: 6.00 Build 0)  -->
<!DOCTYPE svg PUBLIC "-//W3C//DTD SVG 1.1//EN" "http://www.w3.org/Graphics/SVG/1.1/DTD/svg11.dtd">
<svg version="1.1" id="Layer_1" xmlns="http://www.w3.org/2000/svg" xmlns:xlink="http://www.w3.org/1999/xlink" x="0px" y="0px"
	 width="13px" height="13px" viewBox="0 0 13 13" enable-background="new 0 0 13 13" xml:space="preserve">
<path fill="#FFFFFF" d="M8.236,6.45l4.212-4.34c0.234-0.242,0.351-0.557,0.351-0.873s-0.116-0.634-0.351-0.875
	c-0.468-0.482-1.229-0.482-1.696,0L6.4,4.846L2.048,0.362c-0.468-0.482-1.229-0.482-1.696,0c-0.47,0.484-0.47,1.266,0,1.748
	l4.211,4.34l-4.211,4.339c-0.47,0.482-0.47,1.266,0,1.75c0.467,0.48,1.228,0.48,1.696,0L6.4,8.055l4.352,4.484
	c0.467,0.48,1.229,0.48,1.696,0c0.234-0.242,0.351-0.561,0.351-0.875c0-0.316-0.116-0.633-0.351-0.875L8.236,6.45z"/>
</svg>
