<?xml version="1.0" encoding="utf-8"?>
<!-- Generator: Adobe Illustrator 15.1.0, SVG Export Plug-In . SVG Version: 6.00 Build 0)  -->
<!DOCTYPE svg PUBLIC "-//W3C//DTD SVG 1.1//EN" "http://www.w3.org/Graphics/SVG/1.1/DTD/svg11.dtd">
<svg version="1.1" id="Layer_1" xmlns="http://www.w3.org/2000/svg" xmlns:xlink="http://www.w3.org/1999/xlink" x="0px" y="0px"
	 width="24px" height="17px" viewBox="0 0 24 17" enable-background="new 0 0 24 17" xml:space="preserve">
<path fill="#FFFFFF" d="M11.587,6.045c0.769-2.397,1.706-3.95,2.786-5.075c0.806-0.841,1.221-1.107,0.748-0.182
	c0.209-0.168,0.51-0.39,0.743-0.509c1.307-0.617,1.214-0.1,0.313,0.454c2.457-0.879,2.371,0.24-0.227,0.798
	c2.124,0.04,4.383,1.392,5.033,4.267c0.09,0.398-0.019,0.36,0.39,0.432c0.88,0.156,1.708,0.147,2.515-0.11
	c-0.088,0.595-0.873,0.982-2.099,1.237c-0.455,0.095-0.548,0.07-0.003,0.192c0.67,0.151,1.42,0.19,2.213,0.153
	c-0.618,0.711-1.602,1.074-2.82,1.089c-0.761,2.781-2.502,4.772-4.704,6.022C11.304,17.751,3.775,17.324,0,11.989
	c2.477,1.944,6.147,2.372,8.873-0.337c-1.786,0-2.248-1.337-0.833-2.059C6.7,9.58,5.848,9.155,5.348,8.388
	C5.158,8.097,5.156,8.074,5.465,7.85C5.806,7.604,6.27,7.495,6.749,7.458C5.362,7.061,4.514,6.335,4.22,5.364
	C4.123,5.042,4.108,5.058,4.435,4.975c0.32-0.081,0.731-0.124,1.101-0.142c-1.09-0.661-1.741-1.471-1.907-2.367
	C3.472,1.621,3.633,1.837,4.266,2.08C7.096,3.162,9.917,4.325,11.587,6.045"/>
</svg>
