<?xml version="1.0" encoding="utf-8"?>
<!-- Generator: Adobe Illustrator 15.1.0, SVG Export Plug-In . SVG Version: 6.00 Build 0)  -->
<!DOCTYPE svg PUBLIC "-//W3C//DTD SVG 1.1//EN" "http://www.w3.org/Graphics/SVG/1.1/DTD/svg11.dtd">
<svg version="1.1" id="Layer_1" xmlns="http://www.w3.org/2000/svg" xmlns:xlink="http://www.w3.org/1999/xlink" x="0px" y="0px"
	 width="13px" height="16px" viewBox="0 0 13 16" enable-background="new 0 0 13 16" xml:space="preserve">
<path fill="#FFFFFF" d="M4,12.754V8.755h2.191c0.399,0,0.862,0.03,1.198,0.195C7.949,9.224,8.06,9.538,8.18,9.782
	c0.113,0.228,0.23,0.614,0.23,1.108c0,0.386-0.084,0.714-0.252,1.018c-0.172,0.305-0.436,0.499-0.803,0.659
	c-0.413,0.18-0.824,0.204-1.224,0.218C5.73,12.803,4,12.754,4,12.754 M4,2.754c0,0,1.28,0.002,1.643,0.002
	c0.37,0,0.628,0.064,0.892,0.182C6.819,3.06,7.071,3.336,7.203,3.607c0.132,0.272,0.198,0.53,0.198,0.79
	c0,0.349-0.063,0.644-0.187,0.912C7.096,5.573,6.871,5.757,6.552,5.908c-0.293,0.136-0.58,0.159-0.854,0.173
	c-0.276,0.014-0.76,0.008-1.444,0.008H4V2.754z M8.895,15.64c0.725-0.201,1.386-0.593,1.985-1.065
	c0.51-0.398,0.912-0.892,1.215-1.491c0.3-0.604,0.464-1.305,0.465-2.102c0-1.086-0.287-1.95-0.88-2.594
	c-0.593-0.641-1.681-1.063-2.347-1.272V7.031c0.666-0.29,1.198-0.731,1.586-1.342c0.392-0.608,0.563-1.297,0.563-2.079
	c0-0.675-0.144-1.261-0.427-1.779c-0.282-0.513-0.71-0.914-1.283-1.221C9.246,0.323,8.677,0.165,8.071,0.078
	C7.466-0.014,6.574,0,5.401,0H0v16h6.152C7.263,16,8.175,15.842,8.895,15.64"/>
</svg>
